# Blender 4.4.3
# www.blender.org
mtllib example_blender_block.mtl
o Cylinder
v 0.337446 0.000000 -2.231772
v 0.337446 0.000000 -0.730152
v 0.261277 -0.143952 -2.144307
v 0.242682 -0.133737 -0.731066
v 0.198826 -0.198826 -2.176847
v 0.205819 -0.205819 -0.729457
v 0.143952 -0.261277 -2.144307
v 0.118253 -0.285488 -0.728715
v 0.000000 -0.337446 -2.231772
v 0.000000 -0.337446 -0.730152
v -0.143952 -0.261277 -2.144307
v -0.133737 -0.242682 -0.731066
v -0.198826 -0.198826 -2.176847
v -0.205819 -0.205819 -0.729457
v -0.261277 -0.143952 -2.144307
v -0.285488 -0.118253 -0.728715
v -0.337446 0.000000 -2.231772
v -0.337446 0.000000 -0.730152
v -0.261277 0.143952 -2.144307
v -0.242682 0.133737 -0.731066
v -0.198826 0.198826 -2.176847
v -0.205819 0.205819 -0.729457
v -0.143952 0.261277 -2.144307
v -0.118253 0.285488 -0.728715
v 0.000000 0.337446 -2.231772
v 0.000000 0.337446 -0.730152
v 0.143952 0.261277 -2.144307
v 0.133737 0.242682 -0.731066
v 0.198826 0.198826 -2.176847
v 0.205819 0.205819 -0.729457
v 0.261277 0.143952 -2.144307
v 0.285488 0.118253 -0.728715
v 0.078387 0.000000 -2.442169
v 0.072420 -0.029997 -2.442169
v 0.055428 -0.055428 -2.442169
v 0.029997 -0.072420 -2.442169
v -0.000000 -0.078387 -2.442169
v -0.029997 -0.072420 -2.442169
v -0.055428 -0.055428 -2.442169
v -0.072420 -0.029997 -2.442169
v -0.078387 0.000000 -2.442169
v -0.072420 0.029997 -2.442169
v -0.055428 0.055428 -2.442169
v -0.029997 0.072420 -2.442169
v -0.000000 0.078387 -2.442169
v 0.029997 0.072420 -2.442169
v 0.055428 0.055428 -2.442169
v 0.072420 0.029997 -2.442169
v -0.109373 -0.264049 -2.336971
v -0.000000 -0.285805 -2.336971
v -0.202094 0.202094 -2.336971
v -0.264049 0.109373 -2.336971
v 0.264049 0.109373 -2.336971
v 0.202094 0.202094 -2.336971
v 0.109373 -0.264049 -2.336971
v 0.202094 -0.202094 -2.336971
v -0.285805 -0.000000 -2.336971
v -0.264049 -0.109373 -2.336971
v 0.264049 -0.109373 -2.336971
v 0.285805 -0.000000 -2.336971
v 0.109373 0.264049 -2.336971
v -0.000000 0.285805 -2.336971
v -0.202094 -0.202094 -2.336971
v -0.109373 0.264049 -2.336971
v -0.083364 -0.201258 -2.389570
v -0.154036 0.154036 -2.389570
v 0.201258 0.083364 -2.389570
v 0.083364 -0.201258 -2.389570
v -0.217840 -0.000000 -2.389570
v 0.201258 -0.083364 -2.389570
v 0.083364 0.201258 -2.389570
v -0.154036 -0.154036 -2.389570
v -0.083364 0.201258 -2.389570
v -0.000000 -0.217840 -2.389570
v -0.201258 0.083364 -2.389570
v 0.154036 0.154036 -2.389570
v 0.154036 -0.154036 -2.389570
v -0.201258 -0.083364 -2.389570
v 0.217840 -0.000000 -2.389570
v -0.000000 0.217840 -2.389570
v -0.000000 -0.303962 -2.284372
v -0.280824 0.116321 -2.284372
v 0.214933 0.214933 -2.284372
v 0.214933 -0.214933 -2.284372
v -0.280824 -0.116321 -2.284372
v 0.303962 -0.000000 -2.284372
v -0.000000 0.303962 -2.284372
v -0.116321 -0.280824 -2.284372
v -0.214933 0.214933 -2.284372
v 0.280824 0.116321 -2.284372
v 0.116321 -0.280824 -2.284372
v -0.303962 -0.000000 -2.284372
v 0.280824 -0.116321 -2.284372
v 0.116321 0.280824 -2.284372
v -0.214933 -0.214933 -2.284372
v -0.116321 0.280824 -2.284372
v 0.269881 0.000000 -0.542922
v 0.218694 -0.123801 -0.633549
v 0.180443 -0.180443 -0.596001
v 0.123801 -0.218694 -0.633549
v -0.000000 -0.269881 -0.542922
v -0.123801 -0.218694 -0.633549
v -0.180443 -0.180443 -0.596001
v -0.218694 -0.123801 -0.633549
v -0.269881 0.000000 -0.542922
v -0.218694 0.123801 -0.633549
v -0.180443 0.180443 -0.596001
v -0.123801 0.218694 -0.633549
v -0.000000 0.269881 -0.542922
v 0.123801 0.218694 -0.633549
v 0.180443 0.180443 -0.596001
v 0.218694 0.123801 -0.633549
v 0.246196 0.000000 -0.428019
v 0.227456 -0.094215 -0.428019
v 0.174087 -0.174087 -0.428019
v 0.094215 -0.227456 -0.428019
v -0.000000 -0.246196 -0.428019
v -0.094215 -0.227456 -0.428019
v -0.174087 -0.174087 -0.428019
v -0.227456 -0.094215 -0.428019
v -0.246196 0.000000 -0.428019
v -0.227456 0.094215 -0.428019
v -0.174087 0.174087 -0.428019
v -0.094215 0.227456 -0.428019
v -0.000000 0.246196 -0.428019
v 0.094215 0.227456 -0.428019
v 0.174087 0.174087 -0.428019
v 0.227456 0.094215 -0.428019
v 0.234083 0.000000 -0.309016
v 0.216265 -0.089580 -0.309016
v 0.165522 -0.165522 -0.309016
v 0.089580 -0.216265 -0.309016
v -0.000000 -0.234083 -0.309016
v -0.089580 -0.216265 -0.309016
v -0.165522 -0.165522 -0.309016
v -0.216265 -0.089580 -0.309016
v -0.234083 0.000000 -0.309016
v -0.216265 0.089580 -0.309016
v -0.165522 0.165522 -0.309016
v -0.089580 0.216265 -0.309016
v -0.000000 0.234083 -0.309016
v 0.089580 0.216265 -0.309016
v 0.165522 0.165522 -0.309016
v 0.216265 0.089580 -0.309016
v 0.321124 0.000000 -0.105768
v 0.296681 -0.122882 -0.105768
v 0.205366 -0.205444 -0.100383
v 0.122900 -0.296663 -0.105768
v 0.000019 -0.321105 -0.105768
v -0.122863 -0.296663 -0.105768
v -0.205521 -0.205444 -0.100383
v -0.296644 -0.122882 -0.105768
v -0.321087 0.000000 -0.105768
v -0.296644 0.122882 -0.105768
v -0.205521 0.205444 -0.100383
v -0.122863 0.296663 -0.105768
v 0.000019 0.321105 -0.105768
v 0.122900 0.296663 -0.105768
v 0.205366 0.205444 -0.100383
v 0.296681 0.122882 -0.105768
v 0.182162 0.182162 -0.182411
v 0.238006 0.098585 -0.182411
v -0.238006 -0.098585 -0.182411
v -0.257616 0.000000 -0.182411
v 0.257616 0.000000 -0.182411
v 0.238006 -0.098585 -0.182411
v -0.238006 0.098585 -0.182411
v 0.182162 -0.182162 -0.182411
v -0.182162 0.182162 -0.182411
v 0.098585 -0.238006 -0.182411
v -0.098585 0.238006 -0.182411
v -0.000000 -0.257616 -0.182411
v -0.000000 0.257616 -0.182411
v -0.098585 -0.238006 -0.182411
v 0.098585 0.238006 -0.182411
v -0.182162 -0.182162 -0.182411
v 0.319103 0.000000 0.007378
v 0.294661 -0.122882 0.007378
v 0.203538 -0.205444 0.001994
v 0.120880 -0.296663 0.007378
v -0.002002 -0.321105 0.007378
v -0.124884 -0.296663 0.007378
v -0.207350 -0.205444 0.001994
v -0.298665 -0.122882 0.007378
v -0.323107 0.000000 0.007378
v -0.298665 0.122882 0.007378
v -0.207350 0.205444 0.001994
v -0.124884 0.296663 0.007378
v -0.002002 0.321105 0.007378
v 0.120880 0.296663 0.007378
v 0.203538 0.205444 0.001994
v 0.294661 0.122882 0.007378
v 0.244158 0.000000 0.067937
v 0.225422 -0.094194 0.067937
v 0.172065 -0.174049 0.067937
v 0.092211 -0.227405 0.067937
v -0.001983 -0.246142 0.067937
v -0.096178 -0.227405 0.067937
v -0.176032 -0.174049 0.067937
v -0.229389 -0.094194 0.067937
v -0.248125 0.000000 0.067937
v -0.229389 0.094194 0.067937
v -0.176032 0.174049 0.067937
v -0.096178 0.227405 0.067937
v -0.001983 0.246142 0.067937
v 0.092211 0.227405 0.067937
v 0.172065 0.174049 0.067937
v 0.225422 0.094194 0.067937
v 0.172931 0.000000 0.070998
v 0.159616 -0.066937 0.070998
v 0.121700 -0.123683 0.070998
v 0.064953 -0.161600 0.070998
v -0.001983 -0.174914 0.070998
v -0.068920 -0.161600 0.070998
v -0.125666 -0.123683 0.070998
v -0.163583 -0.066937 0.070998
v -0.176898 0.000000 0.070998
v -0.163583 0.066937 0.070998
v -0.125666 0.123683 0.070998
v -0.068920 0.161600 0.070998
v -0.001983 0.174914 0.070998
v 0.064953 0.161600 0.070998
v 0.121700 0.123683 0.070998
v 0.159616 0.066937 0.070998
v 0.172931 0.000000 0.115379
v 0.159616 -0.066937 0.115379
v 0.121700 -0.123683 0.115379
v 0.064953 -0.161600 0.115379
v -0.001983 -0.174914 0.115379
v -0.068920 -0.161600 0.115379
v -0.125666 -0.123683 0.115379
v -0.163583 -0.066937 0.115379
v -0.176898 0.000000 0.115379
v -0.163583 0.066937 0.115379
v -0.125666 0.123683 0.115379
v -0.068920 0.161600 0.115379
v -0.001983 0.174914 0.115379
v 0.064953 0.161600 0.115379
v 0.121700 0.123683 0.115379
v 0.159616 0.066937 0.115379
v 0.118887 0.000000 0.122056
v 0.118887 -0.049993 0.122056
v 0.083736 -0.085720 0.122056
v 0.048009 -0.120871 0.122056
v -0.001983 -0.120871 0.122056
v -0.052023 -0.120918 0.122056
v -0.087607 -0.085623 0.122056
v -0.122894 -0.050042 0.122056
v -0.122870 0.000001 0.122056
v -0.122847 0.049992 0.122056
v -0.087703 0.085720 0.122056
v -0.051976 0.121447 0.122056
v -0.001983 0.119718 0.122056
v 0.048009 0.121447 0.122056
v 0.083736 0.085720 0.122056
v 0.118887 0.049993 0.122056
v 0.118887 -0.000000 0.231458
v 0.118887 -0.049993 0.231458
v 0.083736 -0.085720 0.231458
v 0.048009 -0.120871 0.231458
v -0.001983 -0.120871 0.231458
v -0.052023 -0.120918 0.231458
v -0.087607 -0.085623 0.231458
v -0.122894 -0.050042 0.231458
v -0.122870 0.000001 0.231458
v -0.122847 0.049992 0.231458
v -0.087703 0.085720 0.231458
v -0.051976 0.121447 0.231458
v -0.001983 0.119718 0.231458
v 0.048009 0.121447 0.231458
v 0.083736 0.085720 0.231458
v 0.118887 0.049993 0.231458
v 0.076137 0.000000 0.283779
v 0.070190 -0.029895 0.283779
v 0.053256 -0.055239 0.283779
v 0.027912 -0.072174 0.283779
v -0.001983 -0.078120 0.283779
v -0.031879 -0.072174 0.283779
v -0.057223 -0.055239 0.283779
v -0.074157 -0.029895 0.283779
v -0.080104 0.000000 0.283779
v -0.074157 0.029895 0.283779
v -0.057223 0.055239 0.283779
v -0.031879 0.072174 0.283779
v -0.001983 0.078120 0.283779
v 0.027912 0.072174 0.283779
v 0.053256 0.055239 0.283779
v 0.070190 0.029895 0.283779
v 0.076137 0.000000 2.207921
v 0.050453 -0.052436 2.207921
v -0.001983 -0.078120 2.207921
v -0.054420 -0.052436 2.207921
v -0.080104 0.000000 2.207921
v -0.054420 0.052436 2.207921
v -0.001983 0.078120 2.207921
v 0.050453 0.052436 2.207921
v 0.285488 -0.118253 -0.728715
v 0.282790 -0.117135 -2.195735
v 0.218503 -0.218503 -2.233210
v 0.117135 -0.282790 -2.195735
v 0.133737 -0.242682 -0.731066
v -0.118253 -0.285488 -0.728715
v -0.117135 -0.282790 -2.195735
v -0.218503 -0.218503 -2.233210
v -0.282790 -0.117135 -2.195735
v -0.242682 -0.133737 -0.731066
v -0.285488 0.118253 -0.728715
v -0.282790 0.117135 -2.195735
v -0.218503 0.218503 -2.233210
v -0.117135 0.282790 -2.195735
v -0.133737 0.242682 -0.731066
v 0.118253 0.285488 -0.728715
v 0.117135 0.282790 -2.195735
v 0.218503 0.218503 -2.233210
v 0.282790 0.117135 -2.195735
v 0.242682 0.133737 -0.731066
v 0.190835 -0.190835 -0.542922
v 0.249338 -0.103279 -0.580663
v 0.103279 -0.249338 -0.580663
v -0.190835 -0.190835 -0.542922
v -0.103279 -0.249338 -0.580663
v -0.249338 -0.103279 -0.580663
v -0.190835 0.190835 -0.542922
v -0.249338 0.103279 -0.580663
v -0.103279 0.249338 -0.580663
v 0.190835 0.190835 -0.542922
v 0.103279 0.249338 -0.580663
v 0.249338 0.103279 -0.580663
v 0.005322 0.002313 2.445542
v 0.000370 0.002353 2.445542
v 0.000390 0.007305 2.445542
v -0.001983 0.007232 2.445542
v -0.004357 0.007305 2.445542
v -0.004337 0.002353 2.445542
v -0.009288 0.002313 2.445542
v -0.009215 0.000000 2.445542
v -0.009288 -0.002312 2.445542
v -0.004337 -0.002353 2.445542
v -0.004357 -0.007305 2.445542
v -0.001983 -0.007232 2.445542
v 0.000390 -0.007305 2.445542
v 0.000370 -0.002353 2.445542
v 0.005322 -0.002312 2.445542
v 0.005248 0.000000 2.445542
v 0.072090 0.000000 2.368848
v -0.070267 -0.018299 2.368848
v -0.026651 -0.024668 2.338577
v -0.023372 -0.066730 2.368848
v -0.001983 -0.074073 2.368848
v 0.019406 -0.066730 2.368848
v -0.070267 0.018299 2.368848
v 0.066300 -0.018299 2.368848
v -0.076056 0.000000 2.368848
v -0.026651 0.024668 2.338577
v 0.022684 -0.024668 2.338577
v 0.066300 0.018299 2.368848
v 0.022684 0.024668 2.338577
v 0.019406 0.066730 2.368848
v -0.001983 0.074073 2.368848
v -0.023372 0.066730 2.368848
vn 0.9923 -0.0000 -0.1236
vn 0.9898 -0.0000 0.1427
vn 0.9130 -0.3818 0.1435
vn 0.8974 -0.4328 -0.0862
vn 0.7872 -0.6167 0.0039
vn 0.8364 -0.5339 0.1241
vn 0.7015 -0.7015 0.1252
vn 0.7071 -0.7071 0.0039
vn 0.5339 -0.8364 0.1241
vn 0.6167 -0.7872 0.0039
vn 0.4328 -0.8974 -0.0862
vn 0.3818 -0.9130 0.1435
vn -0.0000 -0.9898 0.1427
vn -0.0000 -0.9923 -0.1236
vn -0.3818 -0.9130 0.1435
vn -0.4328 -0.8974 -0.0862
vn -0.6167 -0.7872 0.0039
vn -0.5339 -0.8364 0.1241
vn -0.7015 -0.7015 0.1252
vn -0.7071 -0.7071 0.0039
vn -0.8364 -0.5339 0.1241
vn -0.7872 -0.6167 0.0039
vn -0.8974 -0.4328 -0.0862
vn -0.9130 -0.3818 0.1435
vn -0.9898 -0.0000 0.1427
vn -0.9923 -0.0000 -0.1236
vn -0.9130 0.3818 0.1435
vn -0.8974 0.4328 -0.0862
vn -0.7872 0.6167 0.0039
vn -0.8364 0.5339 0.1241
vn -0.7015 0.7015 0.1252
vn -0.7071 0.7071 0.0039
vn -0.5339 0.8364 0.1241
vn -0.6167 0.7872 0.0039
vn -0.4328 0.8974 -0.0862
vn -0.3818 0.9130 0.1435
vn -0.0000 0.9898 0.1427
vn -0.0000 0.9923 -0.1236
vn 0.3818 0.9130 0.1435
vn 0.4328 0.8974 -0.0862
vn 0.6167 0.7872 0.0039
vn 0.5339 0.8364 0.1241
vn 0.7015 0.7015 0.1252
vn 0.7071 0.7071 0.0039
vn 0.3627 -0.9051 0.2220
vn -0.0000 -0.9718 0.2357
vn 0.8364 0.5339 0.1241
vn 0.7872 0.6167 0.0039
vn 0.8974 0.4328 -0.0862
vn 0.9130 0.3818 0.1435
vn -0.0000 -0.5087 -0.8609
vn -0.1947 -0.4700 -0.8609
vn -0.0784 -0.1892 -0.9788
vn -0.0000 -0.2048 -0.9788
vn 0.2048 -0.0000 -0.9788
vn 0.1892 -0.0784 -0.9788
vn 0.1448 -0.1448 -0.9788
vn 0.0784 -0.1892 -0.9788
vn -0.1448 -0.1448 -0.9788
vn -0.1892 -0.0784 -0.9788
vn -0.2048 -0.0000 -0.9788
vn -0.1892 0.0784 -0.9788
vn -0.1448 0.1448 -0.9788
vn -0.0784 0.1892 -0.9788
vn -0.0000 0.2048 -0.9788
vn 0.0784 0.1892 -0.9788
vn 0.1448 0.1448 -0.9788
vn 0.1892 0.0784 -0.9788
vn -0.4700 0.1947 -0.8609
vn -0.3597 0.3597 -0.8609
vn 0.3597 0.3597 -0.8609
vn 0.4700 0.1947 -0.8609
vn 0.3597 -0.3597 -0.8609
vn 0.1947 -0.4700 -0.8609
vn -0.4700 -0.1947 -0.8609
vn -0.5087 -0.0000 -0.8609
vn 0.5087 -0.0000 -0.8609
vn 0.4700 -0.1947 -0.8609
vn -0.0000 0.5087 -0.8609
vn 0.1947 0.4700 -0.8609
vn -0.3597 -0.3597 -0.8609
vn -0.1947 0.4700 -0.8609
vn -0.4081 0.8838 -0.2285
vn -0.0000 0.9590 -0.2833
vn -0.0000 0.8475 -0.5309
vn -0.3243 0.7829 -0.5309
vn -0.6955 -0.6955 -0.1806
vn -0.8838 -0.4081 -0.2285
vn -0.7829 -0.3243 -0.5309
vn -0.5992 -0.5992 -0.5309
vn 0.8838 -0.4081 -0.2285
vn 0.6955 -0.6955 -0.1806
vn 0.5992 -0.5992 -0.5309
vn 0.7829 -0.3243 -0.5309
vn 0.4081 0.8838 -0.2285
vn 0.6955 0.6955 -0.1806
vn 0.5992 0.5992 -0.5309
vn 0.3243 0.7829 -0.5309
vn -0.9590 -0.0000 -0.2833
vn -0.8838 0.4081 -0.2285
vn -0.7829 0.3243 -0.5309
vn -0.8475 -0.0000 -0.5309
vn 0.4081 -0.8838 -0.2285
vn -0.0000 -0.9590 -0.2833
vn -0.0000 -0.8475 -0.5309
vn 0.3243 -0.7829 -0.5309
vn 0.8838 0.4081 -0.2285
vn 0.9590 -0.0000 -0.2833
vn 0.8475 -0.0000 -0.5309
vn 0.7829 0.3243 -0.5309
vn -0.6955 0.6955 -0.1806
vn -0.5992 0.5992 -0.5309
vn -0.4081 -0.8838 -0.2285
vn -0.3243 -0.7829 -0.5309
vn -0.7062 0.7062 -0.0514
vn 0.7062 0.7062 -0.0514
vn 0.7062 -0.7062 -0.0514
vn -0.7062 -0.7062 -0.0514
vn 0.3627 0.9051 0.2220
vn -0.0000 0.9718 0.2357
vn -0.0000 0.9903 0.1391
vn 0.3790 0.9150 0.1381
vn -0.9718 -0.0000 0.2357
vn -0.9051 0.3627 0.2220
vn 0.4297 0.8673 0.2511
vn 0.6820 0.6820 0.2640
vn 0.8673 -0.4297 0.2511
vn 0.6820 -0.6820 0.2640
vn -0.6820 -0.6820 0.2640
vn -0.8673 -0.4297 0.2511
vn -0.3627 0.9051 0.2220
vn -0.3627 -0.9051 0.2220
vn -0.8673 0.4297 0.2511
vn -0.6820 0.6820 0.2640
vn 0.8673 0.4297 0.2511
vn 0.4297 -0.8673 0.2511
vn -0.9051 -0.3627 0.2220
vn 0.9718 -0.0000 0.2357
vn 0.9051 -0.3627 0.2220
vn -0.4297 -0.8673 0.2511
vn -0.4297 0.8673 0.2511
vn 0.9051 0.3627 0.2220
vn 0.9903 -0.0000 0.1391
vn 0.9150 0.3790 0.1381
vn 0.9231 0.3824 -0.0411
vn 0.9992 -0.0000 -0.0411
vn -0.6961 -0.6961 0.1754
vn -0.3790 -0.9150 0.1381
vn -0.7002 -0.7002 0.1391
vn 0.6961 0.6961 0.1754
vn 0.7002 0.7002 0.1391
vn -0.9150 -0.3790 0.1381
vn -0.9903 -0.0000 0.1391
vn 0.9150 -0.3790 0.1381
vn -0.9150 0.3790 0.1381
vn 0.6961 -0.6961 0.1754
vn 0.7002 -0.7002 0.1391
vn -0.6961 0.6961 0.1754
vn -0.7002 0.7002 0.1391
vn 0.3790 -0.9150 0.1381
vn -0.3790 0.9150 0.1381
vn -0.0000 -0.9903 0.1391
vn 0.8360 0.3902 -0.3858
vn 0.6632 0.6632 -0.3469
vn 0.6877 0.6882 -0.2310
vn 0.8517 0.4619 -0.2474
vn -0.9992 -0.0000 -0.0411
vn -0.9231 0.3824 -0.0411
vn 0.9231 -0.3824 -0.0411
vn 0.7065 -0.7065 -0.0411
vn -0.7065 0.7065 -0.0411
vn 0.3824 -0.9231 -0.0411
vn -0.3824 0.9231 -0.0411
vn -0.0000 -0.9992 -0.0411
vn -0.0000 0.9992 -0.0411
vn -0.3824 -0.9231 -0.0411
vn 0.3824 0.9231 -0.0411
vn -0.7065 -0.7065 -0.0411
vn 0.7065 0.7065 -0.0411
vn -0.9231 -0.3824 -0.0411
vn 0.4657 0.8486 -0.2509
vn 0.0022 0.9594 -0.2822
vn -0.0035 1.0000 -0.0001
vn 0.4863 0.8738 0.0087
vn -0.9099 -0.0000 -0.4149
vn -0.8361 -0.3900 -0.3859
vn -0.8463 -0.4629 -0.2638
vn -0.9565 -0.0000 -0.2918
vn 0.8360 -0.3902 -0.3858
vn 0.9098 -0.0000 -0.4150
vn 0.9621 -0.0000 -0.2727
vn 0.8517 -0.4619 -0.2474
vn -0.8361 0.3900 -0.3859
vn -0.8463 0.4629 -0.2638
vn 0.6632 -0.6632 -0.3469
vn 0.6877 -0.6882 -0.2310
vn -0.6631 0.6631 -0.3471
vn -0.6859 0.6853 -0.2448
vn 0.3901 -0.8360 -0.3858
vn 0.4657 -0.8486 -0.2509
vn -0.3900 0.8361 -0.3859
vn -0.4591 0.8494 -0.2602
vn -0.0000 -0.9099 -0.4149
vn 0.0022 -0.9594 -0.2822
vn -0.0000 0.9099 -0.4149
vn -0.3900 -0.8361 -0.3859
vn -0.4591 -0.8494 -0.2602
vn 0.3901 0.8360 -0.3858
vn -0.6631 -0.6631 -0.3471
vn -0.6859 -0.6853 -0.2448
vn -0.0000 0.6284 0.7779
vn -0.3119 0.5971 0.7391
vn -0.2143 0.3931 0.8942
vn -0.0000 0.4092 0.9124
vn -0.4949 -0.8689 -0.0088
vn -0.7066 -0.7075 -0.0126
vn 0.7075 0.7066 0.0126
vn -0.8726 -0.4881 -0.0156
vn 0.8698 0.4931 0.0155
vn -0.9998 -0.0000 -0.0179
vn 0.9998 -0.0000 0.0179
vn 0.8698 -0.4931 0.0155
vn -0.8726 0.4881 -0.0156
vn 0.7075 -0.7066 0.0126
vn -0.7066 0.7075 -0.0126
vn 0.4863 -0.8738 0.0087
vn -0.4949 0.8689 -0.0088
vn -0.0035 -1.0000 -0.0001
vn -0.3547 0.3547 0.8651
vn -0.3931 0.2143 0.8942
vn -0.0397 0.0164 0.9991
vn -0.0304 0.0304 0.9991
vn -0.3119 -0.5971 0.7391
vn -0.0000 -0.6284 0.7779
vn -0.0000 -0.4092 0.9124
vn -0.2143 -0.3931 0.8942
vn 0.3117 0.5971 0.7392
vn 0.2141 0.3931 0.8942
vn -0.5240 -0.5240 0.6715
vn -0.3547 -0.3547 0.8651
vn 0.5238 0.5238 0.6718
vn 0.3545 0.3545 0.8652
vn -0.5970 -0.3119 0.7391
vn -0.3931 -0.2143 0.8942
vn 0.5971 0.3117 0.7391
vn 0.3932 0.2141 0.8942
vn -0.6283 -0.0000 0.7780
vn -0.4092 -0.0000 0.9125
vn 0.5971 -0.3117 0.7391
vn 0.6285 -0.0000 0.7778
vn 0.4093 -0.0000 0.9124
vn 0.3932 -0.2141 0.8942
vn -0.5970 0.3119 0.7391
vn 0.5238 -0.5238 0.6718
vn 0.3545 -0.3545 0.8652
vn -0.5240 0.5240 0.6715
vn 0.3117 -0.5971 0.7392
vn 0.2141 -0.3931 0.8942
vn 0.9239 0.3827 -0.0000
vn 0.7071 0.7071 -0.0000
vn 0.6279 0.6278 0.4600
vn 0.8198 0.3395 0.4611
vn 0.0304 -0.0304 0.9991
vn 0.0164 -0.0397 0.9991
vn -0.0164 0.0397 0.9991
vn -0.0000 -0.0429 0.9991
vn -0.0000 0.0429 0.9991
vn -0.0164 -0.0397 0.9991
vn 0.0164 0.0397 0.9991
vn -0.0304 -0.0304 0.9991
vn 0.0304 0.0304 0.9991
vn -0.0397 -0.0164 0.9991
vn 0.0397 0.0164 0.9991
vn -0.0429 -0.0000 0.9991
vn 0.0429 -0.0000 0.9991
vn 0.0397 -0.0164 0.9991
vn -0.3395 -0.8198 0.4611
vn -0.0000 -0.8878 0.4602
vn -0.0000 -0.1368 0.9906
vn -0.0506 -0.1226 0.9912
vn -1.0000 -0.0000 -0.0000
vn -0.9239 -0.3827 -0.0000
vn -0.8198 -0.3396 0.4611
vn -0.8878 -0.0000 0.4602
vn 0.9239 -0.3827 -0.0000
vn 1.0000 -0.0000 -0.0000
vn 0.8878 -0.0000 0.4602
vn 0.8198 -0.3395 0.4611
vn -0.9239 0.3827 -0.0000
vn -0.8198 0.3395 0.4611
vn 0.7071 -0.7071 -0.0000
vn 0.6278 -0.6278 0.4601
vn -0.7071 0.7071 -0.0000
vn -0.6279 0.6278 0.4600
vn 0.3827 -0.9239 -0.0000
vn 0.3395 -0.8198 0.4611
vn -0.3827 0.9239 -0.0000
vn -0.3394 0.8199 0.4611
vn -0.0000 -1.0000 -0.0000
vn -0.0000 1.0000 -0.0000
vn -0.0000 0.8878 0.4603
vn -0.3827 -0.9239 -0.0000
vn 0.3827 0.9239 -0.0000
vn 0.3394 0.8199 0.4611
vn -0.7071 -0.7071 -0.0000
vn -0.6278 -0.6278 0.4601
vn -0.7129 0.7013 -0.0000
vn -0.8865 0.3637 0.2859
vn -0.6748 0.6699 0.3096
vn -0.0000 0.1363 0.9907
vn 0.0496 0.1227 0.9912
vn -0.0969 -0.0969 0.9906
vn 0.0974 0.0970 0.9905
vn -0.1226 -0.0506 0.9912
vn 0.1227 0.0505 0.9912
vn -0.1368 -0.0000 0.9906
vn 0.1368 -0.0000 0.9906
vn 0.1227 -0.0505 0.9912
vn -0.1227 0.0505 0.9912
vn 0.0970 -0.0970 0.9906
vn -0.0974 0.0970 0.9905
vn 0.0505 -0.1227 0.9912
vn -0.0496 0.1227 0.9912
vn 0.8866 0.3636 0.2859
vn 0.6747 0.6700 0.3096
vn 0.6679 0.6664 0.3315
vn 0.8509 0.4043 0.3355
vn 0.7013 -0.7128 -0.0000
vn 0.6725 -0.6725 0.3089
vn 0.3636 -0.8866 0.2859
vn -0.3536 0.8910 0.2848
vn 0.0004 -0.9510 0.3091
vn 0.0346 0.9994 -0.0000
vn -0.0000 0.9506 0.3104
vn 0.0010 -1.0000 -0.0000
vn -0.3648 -0.8861 0.2858
vn -0.0346 0.9994 -0.0000
vn 0.3536 0.8910 0.2848
vn -0.7042 -0.7100 -0.0000
vn -0.6725 -0.6725 0.3091
vn -0.7100 -0.7042 -0.0000
vn -0.8861 -0.3650 0.2858
vn 0.7128 0.7013 -0.0000
vn -1.0000 0.0005 -0.0000
vn -0.9510 0.0004 0.3090
vn 0.9511 -0.0000 0.3090
vn 0.8866 -0.3636 0.2859
vn 0.7128 -0.7013 -0.0000
vn -0.4046 -0.8507 0.3355
vn 0.0001 -0.9406 0.3395
vn -0.0000 -1.0000 0.0070
vn -0.7059 -0.7083 0.0064
vn -0.8507 -0.4047 0.3355
vn -0.9406 0.0001 0.3395
vn 0.9406 -0.0000 0.3395
vn 0.8509 -0.4043 0.3355
vn -0.8509 0.4043 0.3355
vn 0.6672 -0.6672 0.3311
vn -0.6679 0.6664 0.3314
vn 0.4043 -0.8509 0.3355
vn -0.4014 0.8522 0.3356
vn -0.0000 0.9414 0.3374
vn 0.4014 0.8522 0.3356
vn -0.6673 -0.6673 0.3309
vn -0.0000 1.0000 0.0070
vn 0.7059 0.7083 0.0064
vn -1.0000 -0.0000 0.0066
vn 1.0000 -0.0000 0.0066
vn 0.7059 -0.7083 0.0064
vn -0.7059 0.7083 0.0064
vn 0.4367 -0.8945 0.0959
vn 0.6317 -0.7674 0.1098
vn 0.6410 -0.7576 0.1231
vn 0.4540 -0.8871 0.0831
vn 0.6890 -0.6890 0.2249
vn 0.7674 -0.6317 0.1098
vn 0.7576 -0.6410 0.1231
vn 0.8945 -0.4367 0.0959
vn 0.8871 -0.4540 0.0831
vn -0.8945 -0.4367 0.0959
vn -0.7674 -0.6317 0.1098
vn -0.7576 -0.6410 0.1231
vn -0.8871 -0.4540 0.0831
vn -0.6890 -0.6890 0.2249
vn -0.6317 -0.7674 0.1098
vn -0.6410 -0.7576 0.1231
vn -0.4367 -0.8945 0.0959
vn -0.4540 -0.8871 0.0831
vn -0.4367 0.8945 0.0959
vn -0.6317 0.7674 0.1098
vn -0.6410 0.7576 0.1231
vn -0.4540 0.8871 0.0831
vn -0.6890 0.6890 0.2249
vn -0.7674 0.6317 0.1098
vn -0.7576 0.6410 0.1231
vn -0.8945 0.4367 0.0959
vn -0.8871 0.4540 0.0831
vn 0.8945 0.4367 0.0959
vn 0.7674 0.6317 0.1098
vn 0.7576 0.6410 0.1231
vn 0.8871 0.4540 0.0831
vn 0.6890 0.6890 0.2249
vn 0.6317 0.7674 0.1098
vn 0.6410 0.7576 0.1231
vn 0.4367 0.8945 0.0959
vn 0.4540 0.8871 0.0831
vn 0.6880 -0.6880 -0.2312
vn 0.5653 -0.8245 -0.0268
vn 0.5585 -0.8292 -0.0204
vn 0.8245 -0.5653 -0.0268
vn 0.8292 -0.5585 -0.0204
vn -0.6880 -0.6880 -0.2312
vn -0.8245 -0.5653 -0.0268
vn -0.8292 -0.5585 -0.0204
vn -0.5653 -0.8245 -0.0268
vn -0.5585 -0.8292 -0.0204
vn -0.6880 0.6880 -0.2312
vn -0.5653 0.8245 -0.0268
vn -0.5585 0.8292 -0.0204
vn -0.8245 0.5653 -0.0268
vn -0.8292 0.5585 -0.0204
vn 0.6880 0.6880 -0.2312
vn 0.8245 0.5653 -0.0268
vn 0.8292 0.5585 -0.0204
vn 0.5653 0.8245 -0.0268
vn 0.5585 0.8292 -0.0204
vn 0.9790 0.0604 0.1946
vn 0.9790 0.0608 0.1946
vn 0.9792 0.0575 0.1947
vn 0.9790 -0.0608 0.1946
vn 0.9790 -0.0604 0.1946
vn 0.9792 -0.0575 0.1947
vn -0.0000 0.9785 0.2063
vn -0.0002 0.9785 0.2061
vn -0.0015 0.9788 0.2048
vn -0.9790 0.0608 0.1946
vn -0.9790 0.0604 0.1946
vn -0.9792 0.0575 0.1947
vn -0.0000 -0.9785 0.2063
vn 0.0002 -0.9785 0.2061
vn 0.0015 -0.9788 0.2048
vn 0.3558 0.8935 0.2738
vn -0.0000 0.9570 0.2901
vn -0.0000 0.4582 0.8888
vn 0.1491 0.4873 0.8604
vn -0.8968 0.3468 0.2748
vn -0.9562 -0.0000 0.2928
vn -0.4584 -0.0000 0.8887
vn -0.4829 0.1339 0.8654
vn 0.9562 -0.0000 0.2928
vn 0.8968 0.3468 0.2748
vn 0.4829 0.1339 0.8654
vn 0.4584 -0.0000 0.8887
vn -0.3558 -0.8935 0.2738
vn -0.0000 -0.9570 0.2901
vn -0.0000 -0.4583 0.8888
vn -0.1491 -0.4873 0.8604
vn 0.8968 -0.3468 0.2748
vn 0.4829 -0.1339 0.8654
vn -0.3558 0.8935 0.2738
vn -0.1491 0.4873 0.8604
vn -0.8968 -0.3468 0.2748
vn -0.4829 -0.1339 0.8654
vn 0.3558 -0.8935 0.2738
vn 0.1491 -0.4873 0.8604
vn 0.0002 0.9785 0.2061
vn 0.0015 0.9788 0.2048
vn -0.9790 -0.0604 0.1946
vn -0.9790 -0.0608 0.1946
vn -0.9792 -0.0575 0.1947
vn -0.0002 -0.9785 0.2061
vn -0.0015 -0.9788 0.2048
vn 0.0013 -0.9782 0.2076
vn -0.9788 -0.0637 0.1945
vn -0.0013 0.9782 0.2076
vn -0.0013 -0.9782 0.2076
vn -0.9788 0.0637 0.1945
vn 0.0013 0.9782 0.2076
vn 0.9788 -0.0637 0.1945
vn 0.9788 0.0637 0.1945
vn -0.0000 -0.0000 1.0000
vt 0.649548 0.798075
vt 0.266567 0.786215
vt 0.268898 0.734647
vt 0.649987 0.745762
vt 0.638395 0.731715
vt 0.270089 0.716745
vt 0.271508 0.686059
vt 0.639263 0.698076
vt 0.273742 0.655770
vt 0.640792 0.664410
vt 0.653266 0.651086
vt 0.274602 0.638401
vt 0.278521 0.589518
vt 0.655596 0.598748
vt 0.277778 0.540819
vt 0.655994 0.546378
vt 0.644240 0.532472
vt 0.278100 0.523725
vt 0.277970 0.494146
vt 0.644416 0.498772
vt 0.278967 0.464632
vt 0.645122 0.465079
vt 0.657234 0.451471
vt 0.279143 0.447616
vt 0.281418 0.399345
vt 0.658175 0.399114
vt 0.279123 0.351084
vt 0.657173 0.346758
vt 0.645045 0.333164
vt 0.278921 0.334071
vt 0.277872 0.304562
vt 0.644297 0.299470
vt 0.277954 0.274987
vt 0.644077 0.265770
vt 0.655813 0.251848
vt 0.277608 0.257895
vt 0.278292 0.209196
vt 0.655345 0.199478
vt 0.274304 0.160318
vt 0.652945 0.147142
vt 0.640454 0.133834
vt 0.273414 0.142950
vt 0.271127 0.112665
vt 0.638881 0.100170
vt 0.225438 0.631568
vt 0.225915 0.584995
vt 0.269662 0.081981
vt 0.637969 0.066534
vt 0.649543 0.052472
vt 0.268445 0.064078
vt 0.266066 0.012507
vt 0.649033 0.000159
vt 0.955171 0.710285
vt 0.941870 0.741975
vt 0.894659 0.710183
vt 0.899331 0.698971
vt 0.875020 0.662300
vt 0.886231 0.666974
vt 0.894807 0.675582
vt 0.899394 0.686825
vt 0.886023 0.718726
vt 0.874789 0.723349
vt 0.862642 0.723283
vt 0.851428 0.718607
vt 0.842849 0.709997
vt 0.838255 0.698752
vt 0.838315 0.686605
vt 0.843019 0.675409
vt 0.851648 0.666863
vt 0.862876 0.662236
vt 0.819652 0.765823
vt 0.795437 0.741452
vt 0.820151 0.619377
vt 0.851960 0.606365
vt 0.942226 0.644136
vt 0.955301 0.675915
vt 0.885693 0.779221
vt 0.851332 0.779124
vt 0.886325 0.606459
vt 0.918008 0.619762
vt 0.782506 0.675309
vt 0.795772 0.643604
vt 0.917498 0.766209
vt 0.782365 0.709675
vt 0.737829 0.718475
vt 0.737829 0.666460
vt 0.752818 0.669370
vt 0.752631 0.715572
vt 0.942856 0.804052
vt 0.894638 0.823902
vt 0.891572 0.808937
vt 0.934298 0.791399
vt 0.943474 0.581766
vt 0.980193 0.618954
vt 0.967408 0.627301
vt 0.934829 0.594619
vt 0.757859 0.618342
vt 0.794793 0.581532
vt 0.803352 0.594186
vt 0.770608 0.626756
vt 0.842495 0.823829
vt 0.794187 0.803819
vt 0.802831 0.790966
vt 0.845382 0.808827
vt 0.999837 0.667116
vt 0.999841 0.719138
vt 0.984853 0.716225
vt 0.985035 0.670019
vt 0.843016 0.561683
vt 0.895162 0.561755
vt 0.892275 0.576756
vt 0.846081 0.576649
vt 0.757470 0.766634
vt 0.770255 0.758287
vt 0.979783 0.767250
vt 0.967036 0.758833
vt 0.671397 0.546943
vt 0.673922 0.599119
vt 0.661604 0.299265
vt 0.674573 0.299119
vt 0.672584 0.346998
vt 0.656190 0.099625
vt 0.664962 0.051881
vt 0.669161 0.099205
vt 0.656572 0.698599
vt 0.668686 0.651149
vt 0.669544 0.699002
vt 0.676504 0.399104
vt 0.672644 0.451212
vt 0.665406 0.746330
vt 0.667484 0.793366
vt 0.668365 0.147059
vt 0.673671 0.199082
vt 0.661723 0.498955
vt 0.674692 0.499085
vt 0.671215 0.251263
vt 0.666975 0.004840
vt 0.225221 0.167204
vt 0.225711 0.213786
vt 0.195357 0.216813
vt 0.194128 0.171840
vt 0.228394 0.399274
vt 0.229774 0.352531
vt 0.237169 0.147815
vt 0.235465 0.119765
vt 0.233909 0.706920
vt 0.235866 0.679020
vt 0.242039 0.492804
vt 0.242362 0.464301
vt 0.228253 0.260493
vt 0.228440 0.538317
vt 0.242349 0.334453
vt 0.241914 0.305979
vt 0.233493 0.091890
vt 0.237477 0.650943
vt 0.229689 0.446238
vt 0.210883 0.762554
vt 0.219386 0.720206
vt 0.241583 0.521321
vt 0.241417 0.277467
vt 0.218972 0.078648
vt 0.210319 0.036044
vt 0.181928 0.047219
vt 0.187849 0.086586
vt 0.157037 0.092026
vt 0.154517 0.053694
vt 0.226907 0.492220
vt 0.197310 0.536525
vt 0.197125 0.490897
vt 0.220470 0.122633
vt 0.190353 0.128476
vt 0.198564 0.445272
vt 0.198303 0.399495
vt 0.182365 0.751893
vt 0.188314 0.712163
vt 0.198330 0.353443
vt 0.220903 0.676176
vt 0.190842 0.670407
vt 0.226751 0.306617
vt 0.196873 0.307995
vt 0.194244 0.626955
vt 0.197114 0.262363
vt 0.195540 0.581951
vt 0.123572 0.092612
vt 0.124205 0.135232
vt 0.098098 0.136490
vt 0.093330 0.090457
vt 0.167784 0.399474
vt 0.167948 0.353949
vt 0.157555 0.706917
vt 0.159501 0.666220
vt 0.165883 0.309523
vt 0.163625 0.623388
vt 0.166462 0.264741
vt 0.165333 0.579138
vt 0.165198 0.219801
vt 0.166620 0.534207
vt 0.163462 0.175302
vt 0.166274 0.489518
vt 0.158949 0.132777
vt 0.167859 0.444794
vt 0.155047 0.745293
vt 0.098588 0.179969
vt 0.101682 0.223482
vt 0.073736 0.225394
vt 0.071907 0.182454
vt 0.135202 0.399541
vt 0.134673 0.444733
vt 0.102646 0.443883
vt 0.105287 0.399601
vt 0.124033 0.706377
vt 0.124048 0.748109
vt 0.090583 0.755777
vt 0.093764 0.708589
vt 0.123485 0.050872
vt 0.089958 0.043277
vt 0.134273 0.354512
vt 0.102388 0.355304
vt 0.124448 0.663658
vt 0.098539 0.662557
vt 0.130698 0.310696
vt 0.104240 0.311718
vt 0.130559 0.620940
vt 0.098854 0.619101
vt 0.133349 0.267078
vt 0.103066 0.266937
vt 0.133010 0.576635
vt 0.101682 0.575581
vt 0.132919 0.222378
vt 0.133453 0.531923
vt 0.103174 0.532151
vt 0.130112 0.178149
vt 0.130659 0.488258
vt 0.104403 0.487392
vt 0.075980 0.268651
vt 0.042126 0.269188
vt 0.040927 0.225746
vt 0.076116 0.530406
vt 0.073848 0.487400
vt 0.068585 0.138278
vt 0.075354 0.442790
vt 0.067234 0.094092
vt 0.077048 0.399640
vt 0.058961 0.752937
vt 0.067606 0.705037
vt 0.058275 0.046187
vt 0.075158 0.356483
vt 0.069309 0.660863
vt 0.073450 0.311761
vt 0.072022 0.616761
vt 0.073598 0.573726
vt 0.047525 0.312240
vt 0.042986 0.355180
vt 0.016129 0.354955
vt 0.017989 0.312423
vt 0.040580 0.573364
vt 0.042298 0.529529
vt 0.040417 0.182734
vt 0.048110 0.487082
vt 0.042872 0.141317
vt 0.043115 0.444243
vt 0.035811 0.102108
vt 0.042525 0.399702
vt 0.026341 0.734844
vt 0.035975 0.697027
vt 0.025564 0.064460
vt 0.043949 0.657910
vt 0.040398 0.616921
vt 0.911715 0.027252
vt 0.909631 0.052500
vt 0.898367 0.051872
vt 0.900578 0.026613
vt 0.013727 0.655059
vt 0.013621 0.616098
vt 0.014002 0.271059
vt 0.012598 0.573769
vt 0.011278 0.226201
vt 0.014042 0.529835
vt 0.012431 0.182421
vt 0.017135 0.486974
vt 0.014651 0.144408
vt 0.016110 0.444333
vt 0.008002 0.110069
vt 0.013372 0.399702
vt 0.000159 0.718639
vt 0.009387 0.689455
vt 0.000159 0.080855
vt 0.895673 0.277611
vt 0.895005 0.302668
vt 0.874433 0.302945
vt 0.877091 0.277678
vt 0.906524 0.202451
vt 0.906993 0.227496
vt 0.895816 0.227445
vt 0.895219 0.202348
vt 0.910467 0.376898
vt 0.911848 0.403476
vt 0.900418 0.404349
vt 0.899430 0.377969
vt 0.911848 0.000560
vt 0.900427 0.000159
vt 0.907373 0.177360
vt 0.896199 0.177281
vt 0.907835 0.352071
vt 0.896576 0.352796
vt 0.906958 0.152317
vt 0.895657 0.152170
vt 0.907442 0.327359
vt 0.896273 0.327706
vt 0.907950 0.127273
vt 0.896773 0.127091
vt 0.906317 0.302559
vt 0.907833 0.102303
vt 0.896541 0.102023
vt 0.906849 0.277575
vt 0.909144 0.077387
vt 0.897989 0.077013
vt 0.906222 0.252571
vt 0.894916 0.252519
vt 0.677700 0.751170
vt 0.677309 0.732854
vt 0.704198 0.732989
vt 0.706312 0.751627
vt 0.875493 0.101505
vt 0.879592 0.076496
vt 0.874388 0.252472
vt 0.877941 0.050895
vt 0.877233 0.227316
vt 0.882284 0.026452
vt 0.874603 0.202193
vt 0.878747 0.400156
vt 0.881122 0.378723
vt 0.878943 0.005244
vt 0.877594 0.177146
vt 0.876239 0.353972
vt 0.875181 0.151957
vt 0.877663 0.328249
vt 0.878383 0.126624
vt 0.710323 0.843095
vt 0.708968 0.824590
vt 0.730125 0.820563
vt 0.733813 0.835364
vt 0.680147 0.620769
vt 0.682499 0.601624
vt 0.710438 0.604343
vt 0.707098 0.622637
vt 0.676823 0.770264
vt 0.703617 0.770071
vt 0.680005 0.639508
vt 0.708552 0.641220
vt 0.677735 0.789382
vt 0.706598 0.788264
vt 0.678588 0.658409
vt 0.705428 0.659393
vt 0.678083 0.808916
vt 0.704650 0.806599
vt 0.678804 0.677238
vt 0.707523 0.677799
vt 0.680592 0.829063
vt 0.677892 0.695975
vt 0.704780 0.696109
vt 0.684110 0.849431
vt 0.678322 0.714172
vt 0.706978 0.714735
vt 0.683988 0.582054
vt 0.687718 0.561683
vt 0.716799 0.567335
vt 0.710727 0.585457
vt 0.690183 0.868754
vt 0.717682 0.861042
vt 0.738431 0.561249
vt 0.726099 0.561151
vt 0.728648 0.073375
vt 0.752093 0.073939
vt 0.729638 0.696622
vt 0.728051 0.715017
vt 0.737510 0.579178
vt 0.734650 0.592170
vt 0.737510 0.848098
vt 0.729049 0.733408
vt 0.731683 0.607622
vt 0.727524 0.751634
vt 0.731798 0.624467
vt 0.728658 0.769689
vt 0.729703 0.642169
vt 0.727589 0.787280
vt 0.730375 0.660164
vt 0.729626 0.804373
vt 0.728682 0.678319
vt 0.837123 0.561052
vt 0.824793 0.561151
vt 0.822243 0.073375
vt 0.845792 0.072148
vt 0.750767 0.561315
vt 0.849441 0.560930
vt 0.763104 0.561360
vt 0.861757 0.560793
vt 0.775446 0.561364
vt 0.775446 0.074353
vt 0.689135 0.560793
vt 0.676823 0.560610
vt 0.681538 0.071533
vt 0.705099 0.072148
vt 0.874069 0.560610
vt 0.869353 0.071533
vt 0.787788 0.561360
vt 0.798799 0.073938
vt 0.701451 0.560930
vt 0.800125 0.561315
vt 0.713769 0.561052
vt 0.812461 0.561249
vt 0.726952 0.034769
vt 0.712343 0.030385
vt 0.747064 0.001452
vt 0.749878 0.002931
vt 0.838549 0.030385
vt 0.823939 0.034769
vt 0.801014 0.002931
vt 0.803827 0.001452
vt 0.795466 0.036698
vt 0.781238 0.038287
vt 0.779370 0.004631
vt 0.787102 0.003529
vt 0.755426 0.036698
vt 0.741248 0.036826
vt 0.755791 0.003711
vt 0.763790 0.003529
vt 0.695721 0.022931
vt 0.743114 0.001067
vt 0.816874 0.036294
vt 0.798058 0.003281
vt 0.775446 0.038885
vt 0.775446 0.004440
vt 0.862323 0.019063
vt 0.855170 0.022931
vt 0.807778 0.001067
vt 0.808148 0.000159
vt 0.734018 0.036294
vt 0.752833 0.003281
vt 0.688569 0.019063
vt 0.742744 0.000159
vt 0.809644 0.036826
vt 0.795100 0.003711
vt 0.769654 0.038287
vt 0.771522 0.004631
vt 0.000159 0.802577
vt 0.002908 0.802512
vt 0.001470 0.803907
vt 0.000836 0.803221
vt 0.002923 0.799823
vt 0.005671 0.799757
vt 0.004261 0.801175
vt 0.004304 0.803941
vt 0.001569 0.801160
vt 0.001527 0.798394
vt 0.004360 0.798428
vt 0.004994 0.799114
vt 0.000159 0.799735
vt 0.000865 0.799086
vt 0.005671 0.802600
vt 0.004966 0.803249
s 1
usemtl screwmaterial
f 1/1/1 2/2/2 297/3/3 298/4/4
f 3/5/5 4/6/6 6/7/7 5/8/8
f 5/8/8 6/7/7 301/9/9 7/10/10
f 300/11/11 8/12/12 10/13/13 9/14/14
f 9/14/14 10/13/13 302/15/15 303/16/16
f 11/17/17 12/18/18 14/19/19 13/20/20
f 13/20/20 14/19/19 306/21/21 15/22/22
f 305/23/23 16/24/24 18/25/25 17/26/26
f 17/26/26 18/25/25 307/27/27 308/28/28
f 19/29/29 20/30/30 22/31/31 21/32/32
f 21/32/32 22/31/31 311/33/33 23/34/34
f 310/35/35 24/36/36 26/37/37 25/38/38
f 25/38/38 26/37/37 312/39/39 313/40/40
f 27/41/41 28/42/42 30/43/43 29/44/44
f 10/13/13 8/12/12 319/45/45 101/46/46
f 29/44/44 30/43/43 316/47/47 31/48/48
f 315/49/49 32/50/50 2/51/2 1/52/1
f 74/53/51 65/54/52 38/55/53 37/56/54
f 33/57/55 34/58/56 35/59/57 36/60/58 37/56/54 38/55/53 39/61/59 40/62/60 41/63/61 42/64/62 43/65/63 44/66/64 45/67/65 46/68/66 47/69/67 48/70/68
f 75/71/69 66/72/70 43/65/63 42/64/62
f 76/73/71 67/74/72 48/70/68 47/69/67
f 77/75/73 68/76/74 36/60/58 35/59/57
f 78/77/75 69/78/76 41/63/61 40/62/60
f 79/79/77 70/80/78 34/58/56 33/57/55
f 80/81/79 71/82/80 46/68/66 45/67/65
f 65/54/52 72/83/81 39/61/59 38/55/53
f 66/72/70 73/84/82 44/66/64 43/65/63
f 67/74/72 79/79/77 33/57/55 48/70/68
f 68/76/74 74/53/51 37/56/54 36/60/58
f 69/78/76 75/71/69 42/64/62 41/63/61
f 71/82/80 76/73/71 47/69/67 46/68/66
f 70/80/78 77/75/73 35/59/57 34/58/56
f 72/83/81 78/77/75 40/62/60 39/61/59
f 73/84/82 80/81/79 45/67/65 44/66/64
f 96/85/83 87/86/84 62/87/85 64/88/86
f 95/89/87 85/90/88 58/91/89 63/92/90
f 93/93/91 84/94/92 56/95/93 59/96/94
f 94/97/95 83/98/96 54/99/97 61/100/98
f 92/101/99 82/102/100 52/103/101 57/104/102
f 91/105/103 81/106/104 50/107/105 55/108/106
f 90/109/107 86/110/108 60/111/109 53/112/110
f 89/113/111 96/85/83 64/88/86 51/114/112
f 88/115/113 95/89/87 63/92/90 49/116/114
f 87/86/84 94/97/95 61/100/98 62/87/85
f 86/110/108 93/93/91 59/96/94 60/111/109
f 85/90/88 92/101/99 57/104/102 58/91/89
f 84/94/92 91/105/103 55/108/106 56/95/93
f 83/98/96 90/109/107 53/112/110 54/99/97
f 82/102/100 89/113/111 51/114/112 52/103/101
f 81/106/104 88/115/113 49/116/114 50/107/105
f 64/88/86 62/87/85 80/81/79 73/84/82
f 63/92/90 58/91/89 78/77/75 72/83/81
f 59/96/94 56/95/93 77/75/73 70/80/78
f 61/100/98 54/99/97 76/73/71 71/82/80
f 57/104/102 52/103/101 75/71/69 69/78/76
f 55/108/106 50/107/105 74/53/51 68/76/74
f 53/112/110 60/111/109 79/79/77 67/74/72
f 51/114/112 64/88/86 73/84/82 66/72/70
f 49/116/114 63/92/90 72/83/81 65/54/52
f 62/87/85 61/100/98 71/82/80 80/81/79
f 60/111/109 59/96/94 70/80/78 79/79/77
f 58/91/89 57/104/102 69/78/76 78/77/75
f 56/95/93 55/108/106 68/76/74 77/75/73
f 54/99/97 53/112/110 67/74/72 76/73/71
f 52/103/101 51/114/112 66/72/70 75/71/69
f 50/107/105 49/116/114 65/54/52 74/53/51
f 9/14/14 303/16/16 88/117/113 81/118/104
f 308/28/28 309/119/115 89/120/111 82/121/100
f 314/122/116 315/49/49 90/123/107 83/124/96
f 299/125/117 300/11/11 91/126/103 84/127/92
f 305/23/23 17/26/26 92/128/99 85/129/88
f 1/1/1 298/4/4 93/130/91 86/131/108
f 25/38/38 313/40/40 94/132/95 87/133/84
f 303/16/16 304/134/118 95/135/87 88/117/113
f 309/119/115 310/35/35 96/136/83 89/120/111
f 315/49/49 1/52/1 86/137/108 90/123/107
f 300/11/11 9/14/14 81/118/104 91/126/103
f 17/26/26 308/28/28 82/121/100 92/128/99
f 313/40/40 314/122/116 83/124/96 94/132/95
f 298/4/4 299/125/117 84/127/92 93/130/91
f 304/134/118 305/23/23 85/129/88 95/135/87
f 310/35/35 25/38/38 87/133/84 96/136/83
f 327/138/119 109/139/120 125/140/121 126/141/122
f 307/27/27 18/25/25 105/142/123 324/143/124
f 30/43/43 28/42/42 110/144/125 111/145/126
f 6/7/7 4/6/6 98/146/127 99/147/128
f 306/21/21 14/19/19 103/148/129 104/149/130
f 26/37/37 24/36/36 325/150/131 109/139/120
f 302/15/15 10/13/13 101/46/46 321/151/132
f 22/31/31 20/30/30 106/152/133 107/153/134
f 316/47/47 30/43/43 111/145/126 112/154/135
f 301/9/9 6/7/7 99/147/128 100/155/136
f 18/25/25 16/24/24 322/156/137 105/142/123
f 297/3/3 2/2/2 97/157/138 318/158/139
f 312/39/39 26/37/37 109/139/120 327/138/119
f 14/19/19 12/18/18 102/159/140 103/148/129
f 311/33/33 22/31/31 107/153/134 108/160/141
f 2/51/2 32/50/50 328/161/142 97/162/138
f 113/163/143 128/164/144 144/165/145 129/166/146
f 320/167/147 321/151/132 118/168/148 119/169/149
f 326/170/150 327/138/119 126/141/122 127/171/151
f 322/156/137 320/167/147 119/169/149 120/172/152
f 328/161/142 326/170/150 127/171/151 128/164/144
f 105/142/123 322/156/137 120/172/152 121/173/153
f 318/158/139 97/157/138 113/174/143 114/175/154
f 97/162/138 328/161/142 128/164/144 113/163/143
f 324/143/124 105/142/123 121/173/153 122/176/155
f 317/177/156 318/158/139 114/175/154 115/178/157
f 323/179/158 324/143/124 122/176/155 123/180/159
f 319/45/45 317/177/156 115/178/157 116/181/160
f 325/150/131 323/179/158 123/180/159 124/182/161
f 101/46/46 319/45/45 116/181/160 117/183/162
f 109/139/120 325/150/131 124/182/161 125/140/121
f 321/151/132 101/46/46 117/183/162 118/168/148
f 162/184/163 161/185/164 159/186/165 160/187/166
f 122/176/155 121/173/153 137/188/167 138/189/168
f 115/178/157 114/175/154 130/190/169 131/191/170
f 123/180/159 122/176/155 138/189/168 139/192/171
f 116/181/160 115/178/157 131/191/170 132/193/172
f 124/182/161 123/180/159 139/192/171 140/194/173
f 117/183/162 116/181/160 132/193/172 133/195/174
f 125/140/121 124/182/161 140/194/173 141/196/175
f 118/168/148 117/183/162 133/195/174 134/197/176
f 126/141/122 125/140/121 141/196/175 142/198/177
f 119/169/149 118/168/148 134/197/176 135/199/178
f 127/171/151 126/141/122 142/198/177 143/200/179
f 120/172/152 119/169/149 135/199/178 136/201/180
f 128/164/144 127/171/151 143/200/179 144/165/145
f 121/173/153 120/172/152 136/201/180 137/188/167
f 114/175/154 113/174/143 129/202/146 130/190/169
f 158/203/181 157/204/182 189/205/183 190/206/184
f 164/207/185 163/208/186 152/209/187 153/210/188
f 166/211/189 165/212/190 145/213/191 146/214/192
f 165/215/190 162/184/163 160/187/166 145/216/191
f 167/217/193 164/207/185 153/210/188 154/218/194
f 168/219/195 166/211/189 146/214/192 147/220/196
f 169/221/197 167/217/193 154/218/194 155/222/198
f 170/223/199 168/219/195 147/220/196 148/224/200
f 171/225/201 169/221/197 155/222/198 156/226/202
f 172/227/203 170/223/199 148/224/200 149/228/204
f 173/229/205 171/225/201 156/226/202 157/204/182
f 174/230/206 172/227/203 149/228/204 150/231/207
f 175/232/208 173/229/205 157/204/182 158/203/181
f 176/233/209 174/230/206 150/231/207 151/234/210
f 161/185/164 175/232/208 158/203/181 159/186/165
f 163/208/186 176/233/209 151/234/210 152/209/187
f 136/201/180 135/199/178 176/233/209 163/208/186
f 143/200/179 142/198/177 175/232/208 161/185/164
f 135/199/178 134/197/176 174/230/206 176/233/209
f 142/198/177 141/196/175 173/229/205 175/232/208
f 134/197/176 133/195/174 172/227/203 174/230/206
f 141/196/175 140/194/173 171/225/201 173/229/205
f 133/195/174 132/193/172 170/223/199 172/227/203
f 140/194/173 139/192/171 169/221/197 171/225/201
f 132/193/172 131/191/170 168/219/195 170/223/199
f 139/192/171 138/189/168 167/217/193 169/221/197
f 131/191/170 130/190/169 166/211/189 168/219/195
f 138/189/168 137/188/167 164/207/185 167/217/193
f 129/166/146 144/165/145 162/184/163 165/215/190
f 130/190/169 129/202/146 165/212/190 166/211/189
f 137/188/167 136/201/180 163/208/186 164/207/185
f 144/165/145 143/200/179 161/185/164 162/184/163
f 189/205/211 188/235/212 204/236/213 205/237/214
f 151/234/210 150/231/207 182/238/215 183/239/216
f 159/186/165 158/203/181 190/206/184 191/240/217
f 152/209/187 151/234/210 183/239/216 184/241/218
f 160/187/166 159/186/165 191/240/217 192/242/219
f 153/210/188 152/209/187 184/241/218 185/243/220
f 146/214/192 145/213/191 177/244/221 178/245/222
f 145/216/191 160/187/166 192/242/219 177/246/221
f 154/218/194 153/210/188 185/243/220 186/247/223
f 147/220/196 146/214/192 178/245/222 179/248/224
f 155/222/198 154/218/194 186/247/223 187/249/225
f 148/224/200 147/220/196 179/248/224 180/250/226
f 156/226/202 155/222/198 187/249/225 188/235/227
f 149/228/204 148/224/200 180/250/226 181/251/228
f 157/204/182 156/226/202 188/235/227 189/205/183
f 150/231/207 149/228/204 181/251/228 182/238/215
f 203/252/229 202/253/230 218/254/231 219/255/232
f 182/238/233 181/251/234 197/256/235 198/257/236
f 190/206/237 189/205/211 205/237/214 206/258/238
f 183/239/239 182/238/233 198/257/236 199/259/240
f 191/240/241 190/206/237 206/258/238 207/260/242
f 184/241/243 183/239/239 199/259/240 200/261/244
f 192/242/245 191/240/241 207/260/242 208/262/246
f 185/243/247 184/241/243 200/261/244 201/263/248
f 178/245/249 177/244/250 193/264/251 194/265/252
f 177/246/250 192/242/245 208/262/246 193/266/251
f 186/247/253 185/243/247 201/263/248 202/253/230
f 179/248/254 178/245/249 194/265/252 195/267/255
f 187/249/256 186/247/253 202/253/230 203/252/229
f 180/250/257 179/248/254 195/267/255 196/268/258
f 188/235/212 187/249/256 203/252/229 204/236/213
f 181/251/234 180/250/257 196/268/258 197/256/235
f 224/269/259 223/270/260 239/271/261 240/272/262
f 196/268/258 195/267/255 211/273/263 212/274/264
f 204/236/213 203/252/229 219/255/232 220/275/265
f 197/256/235 196/268/258 212/274/264 213/276/266
f 205/237/214 204/236/213 220/275/265 221/277/267
f 198/257/236 197/256/235 213/276/266 214/278/268
f 206/258/238 205/237/214 221/277/267 222/279/269
f 199/259/240 198/257/236 214/278/268 215/280/270
f 207/260/242 206/258/238 222/279/269 223/281/271
f 200/261/244 199/259/240 215/280/270 216/282/272
f 208/262/246 207/260/242 223/281/271 224/283/273
f 201/263/248 200/261/244 216/282/272 217/284/274
f 194/265/252 193/264/251 209/285/275 210/286/276
f 193/266/251 208/262/246 224/283/273 209/287/275
f 202/253/230 201/263/248 217/284/274 218/254/231
f 195/267/255 194/265/252 210/286/276 211/273/263
f 230/288/277 229/289/278 245/290/279 246/291/280
f 217/292/281 216/293/282 232/294/283 233/295/284
f 210/296/285 209/297/286 225/298/287 226/299/288
f 209/300/286 224/269/259 240/272/262 225/301/287
f 218/302/289 217/292/281 233/295/284 234/303/290
f 211/304/291 210/296/285 226/299/288 227/305/292
f 219/306/293 218/302/289 234/303/290 235/307/294
f 212/308/295 211/304/291 227/305/292 228/309/296
f 220/310/297 219/306/293 235/307/294 236/311/298
f 213/312/299 212/308/295 228/309/296 229/289/278
f 221/313/300 220/310/297 236/311/298 237/314/301
f 214/315/302 213/312/299 229/289/278 230/288/277
f 222/316/303 221/313/300 237/314/301 238/317/304
f 215/318/305 214/315/302 230/288/277 231/319/306
f 223/270/260 222/316/303 238/317/304 239/271/261
f 216/293/282 215/318/305 231/319/306 232/294/283
f 251/320/307 250/321/307 266/322/308 267/323/309
f 238/317/304 237/314/301 253/324/310 254/325/311
f 231/319/306 230/288/277 246/291/280 247/326/312
f 239/271/261 238/317/304 254/325/311 255/327/313
f 232/294/283 231/319/306 247/326/312 248/328/314
f 240/272/262 239/271/261 255/327/313 256/329/315
f 233/295/284 232/294/283 248/328/314 249/330/316
f 226/299/288 225/298/287 241/331/317 242/332/318
f 225/301/287 240/272/262 256/329/315 241/333/317
f 234/303/290 233/295/284 249/330/316 250/334/319
f 227/305/292 226/299/288 242/332/318 243/335/320
f 235/307/294 234/303/290 250/334/319 251/336/321
f 228/309/296 227/305/292 243/335/320 244/337/322
f 236/311/298 235/307/294 251/336/321 252/338/323
f 229/289/278 228/309/296 244/337/322 245/290/279
f 237/314/301 236/311/298 252/338/323 253/324/310
f 272/339/324 271/340/325 287/341/326 288/342/327
f 244/343/328 243/344/328 259/345/329 260/346/330
f 252/347/293 251/320/293 267/323/309 268/348/331
f 245/349/299 244/343/299 260/346/330 261/350/332
f 253/351/333 252/347/333 268/348/331 269/352/334
f 246/353/335 245/349/335 261/350/332 262/354/336
f 254/355/337 253/351/337 269/352/334 270/356/338
f 247/357/339 246/353/339 262/354/336 263/358/340
f 255/359/260 254/355/260 270/356/338 271/340/325
f 248/360/341 247/357/341 263/358/340 264/361/342
f 256/362/343 255/359/343 271/340/325 272/339/324
f 249/363/344 248/360/344 264/361/342 265/364/345
f 242/365/286 241/366/286 257/367/346 258/368/347
f 241/369/286 256/362/286 272/339/324 257/370/346
f 250/321/344 249/363/344 265/364/345 266/322/308
f 243/344/348 242/365/348 258/368/347 259/345/329
f 278/371/349 277/372/350 291/373/351 292/374/352
f 265/364/345 264/361/342 280/375/353 281/376/354
f 258/368/347 257/367/346 273/377/355 274/378/356
f 257/370/346 272/339/324 288/342/327 273/379/355
f 266/322/308 265/364/345 281/376/354 282/380/357
f 259/345/329 258/368/347 274/378/356 275/381/358
f 267/323/309 266/322/308 282/380/357 283/382/359
f 260/346/330 259/345/329 275/381/358 276/383/360
f 268/348/331 267/323/309 283/382/359 284/384/361
f 261/350/332 260/346/330 276/383/360 277/385/350
f 269/352/334 268/348/331 284/384/361 285/386/362
f 262/354/336 261/350/332 277/385/350 278/387/349
f 270/356/338 269/352/334 285/386/362 286/388/363
f 263/358/340 262/354/336 278/387/349 279/389/364
f 271/340/325 270/356/338 286/388/363 287/341/326
f 264/361/342 263/358/340 279/389/364 280/375/353
f 286/390/363 285/391/362 295/392/365 296/393/366
f 279/394/364 278/371/349 292/374/352
f 287/395/326 286/390/363 296/393/366
f 280/396/353 279/394/364 292/374/352
f 288/397/327 287/395/326 296/393/366
f 281/398/354 280/396/353 292/374/352 293/399/367
f 274/400/356 273/401/355 289/402/368 290/403/369
f 273/404/355 288/397/327 296/393/366 289/405/368
f 282/406/357 281/398/354 293/399/367 294/407/370
f 275/408/358 274/400/356 290/403/369
f 283/409/359 282/406/357 294/407/370
f 276/410/360 275/408/358 290/403/369
f 284/411/361 283/409/359 294/407/370
f 277/372/350 276/410/360 290/403/369 291/373/351
f 285/391/362 284/411/361 294/407/370 295/392/365
f 4/6/371 3/5/372 298/4/373 297/3/374
f 3/5/372 5/8/375 299/125/375 298/4/373
f 5/8/375 7/10/376 300/11/377 299/125/375
f 7/10/376 301/9/378 8/12/379 300/11/377
f 12/18/380 11/17/381 303/16/382 302/15/383
f 11/17/381 13/20/384 304/134/384 303/16/382
f 13/20/384 15/22/385 305/23/386 304/134/384
f 15/22/385 306/21/387 16/24/388 305/23/386
f 20/30/389 19/29/390 308/28/391 307/27/392
f 19/29/390 21/32/393 309/119/393 308/28/391
f 21/32/393 23/34/394 310/35/395 309/119/393
f 23/34/394 311/33/396 24/36/397 310/35/395
f 28/42/398 27/41/399 313/40/400 312/39/401
f 27/41/399 29/44/402 314/122/402 313/40/400
f 29/44/402 31/48/403 315/49/404 314/122/402
f 31/48/403 316/47/405 32/50/406 315/49/404
f 99/147/407 98/146/408 318/158/409 317/177/407
f 100/155/410 99/147/407 317/177/407 319/45/411
f 103/148/412 102/159/413 321/151/414 320/167/412
f 104/149/415 103/148/412 320/167/412 322/156/416
f 107/153/417 106/152/418 324/143/419 323/179/417
f 108/160/420 107/153/417 323/179/417 325/150/421
f 111/145/422 110/144/423 327/138/424 326/170/422
f 112/154/425 111/145/422 326/170/422 328/161/426
f 301/9/378 100/155/410 319/45/411 8/12/379
f 106/152/418 20/30/389 307/27/392 324/143/419
f 110/144/423 28/42/398 312/39/401 327/138/424
f 98/146/408 4/6/371 297/3/374 318/158/409
f 306/21/387 104/149/415 322/156/416 16/24/388
f 311/33/396 108/160/420 325/150/421 24/36/397
f 102/159/413 12/18/380 302/15/383 321/151/414
f 316/47/405 112/154/425 328/161/426 32/50/406
f 350/412/427 355/413/428 342/414/429 341/415/429
f 357/416/430 358/417/431 331/418/432 330/419/432
f 354/420/433 351/421/434 335/422/435 334/423/435
f 347/424/436 348/425/437 339/426/438 338/427/438
f 355/413/439 352/428/440 343/429/441 342/414/441
f 358/417/442 359/430/443 332/431/444 331/418/445
f 351/421/446 353/432/447 336/433/448 335/422/449
f 345/434/450 356/435/451 329/436/452 344/437/453
f 348/425/454 349/438/455 340/439/456 339/426/457
f 352/428/458 345/440/450 344/441/453 343/429/459
f 359/430/443 360/442/460 333/443/461 332/431/444
f 353/432/447 346/444/462 337/445/463 336/433/448
f 349/438/455 350/412/464 341/415/465 340/439/456
f 356/435/466 357/416/433 330/419/467 329/436/467
f 360/442/468 354/420/469 334/423/470 333/443/470
f 346/444/471 347/424/439 338/427/472 337/445/472
f 292/374/473 347/424/439 346/444/471
f 294/407/474 354/420/469 360/442/468
f 296/393/475 357/416/433 356/435/466
f 291/373/351 290/403/369 350/412/464 349/438/455
f 293/399/367 292/374/352 346/444/462 353/432/447
f 295/392/365 294/407/370 360/442/460 359/430/443
f 290/403/369 289/402/368 345/440/450 352/428/458
f 292/374/352 291/373/351 349/438/455 348/425/454
f 289/405/368 296/393/366 356/435/451 345/434/450
f 294/407/370 293/399/367 353/432/447 351/421/446
f 296/393/366 295/392/365 359/430/443 358/417/442
f 290/403/476 352/428/440 355/413/439
f 292/374/477 348/425/437 347/424/436
f 294/407/478 351/421/434 354/420/433
f 296/393/479 358/417/431 357/416/430
f 290/403/480 355/413/428 350/412/427
f 329/446/452 342/447/481 343/448/459 344/449/453
f 334/450/481 337/451/463 338/452/481
f 342/447/481 338/452/481 341/453/465
f 334/450/481 330/454/481 333/455/461
f 342/447/481 330/454/481 334/450/481 338/452/481
f 337/451/463 334/450/481 335/456/449 336/457/448
f 333/455/461 330/454/481 331/458/445 332/459/444
f 342/447/481 329/446/452 330/454/481
f 341/453/465 338/452/481 339/460/457 340/461/456
