# Blender 4.5.2 LTS
# www.blender.org
mtllib anti-prism.mtl
o a
v 0.195949 0.002727 -0.486771
v 0.204775 0.002927 -0.510160
v 0.000045 0.360852 -0.351282
v -0.000258 0.383687 -0.365649
v 0.352767 0.360710 0.001521
v 0.367021 0.383636 0.001548
v 0.488599 0.002737 -0.246179
v 0.511188 0.002916 -0.256890
v 0.488577 0.002676 0.243158
v 0.511211 0.002785 0.253773
v 0.244864 -0.366217 0.243466
v 0.254837 -0.389243 0.253466
v 0.245380 -0.366244 -0.246482
v 0.255345 -0.389217 -0.256587
v 0.195395 0.002716 0.489855
v 0.204305 0.002744 0.513214
v 0.000043 0.360667 0.354340
v -0.000256 0.383486 0.368728
v -0.488563 0.002823 -0.196739
v -0.511650 0.002831 -0.206330
v -0.352881 0.360787 0.001523
v -0.367331 0.383559 0.001546
v -0.194895 0.002795 -0.486900
v -0.204380 0.002859 -0.510031
v -0.245026 -0.366342 0.243376
v -0.255274 -0.389119 0.253555
v -0.488540 0.002756 0.193726
v -0.511673 0.002704 0.203205
v -0.244528 -0.366367 -0.246385
v -0.254747 -0.389093 -0.256684
v -0.195364 0.002780 0.489987
v -0.204936 0.002681 0.513082
v 0.203964 0.014195 -0.486103
v 0.014904 0.360984 -0.353855
v 0.354955 0.361492 -0.014774
v 0.486167 0.013410 -0.252293
v 0.492500 -0.008517 0.235966
v 0.257257 -0.366480 0.235966
v 0.257732 -0.366471 -0.239034
v 0.492511 -0.008435 -0.239034
v 0.203368 0.014091 0.489074
v 0.486227 0.013398 0.249453
v 0.354994 0.361416 0.017698
v 0.014891 0.360791 0.356927
v -0.486902 0.014075 -0.204185
v -0.355481 0.360923 -0.013543
v -0.015092 0.360973 -0.353860
v -0.202477 0.014125 -0.485348
v -0.257528 -0.366480 0.234401
v -0.492714 -0.008518 0.187357
v -0.492706 -0.008420 -0.190425
v -0.257052 -0.366485 -0.237469
v -0.015106 0.360792 0.356927
v -0.355516 0.360846 0.016453
v -0.486975 0.014058 0.201358
v -0.202876 0.014014 0.488328
v 0.235792 -0.366528 0.255917
v 0.188736 -0.008472 0.494083
v -0.189036 -0.008472 0.494083
v -0.236091 -0.366528 0.255917
v -0.188535 -0.008473 -0.491133
v 0.189259 -0.008473 -0.491133
v 0.236290 -0.366430 -0.258867
v -0.235565 -0.366430 -0.258867
v 0.212896 -0.009822 -0.481295
v 0.480764 -0.009822 -0.260467
v 0.257611 -0.350150 -0.260467
v 0.495023 0.015585 0.224707
v 0.495023 0.015673 -0.227443
v 0.368421 0.349672 0.001407
v 0.342216 0.372173 0.001534
v -0.000106 0.372265 -0.340788
v -0.342429 0.372173 0.001534
v -0.000106 0.372081 0.343857
v 0.179076 0.015677 -0.493596
v -0.178400 0.015677 -0.493596
v -0.000081 0.345844 -0.368479
v 0.257092 -0.350411 0.257501
v 0.480891 -0.009883 0.257501
v 0.212340 -0.009883 0.484008
v -0.237637 -0.377730 0.235966
v -0.237151 -0.377730 -0.239034
v 0.237849 -0.377730 -0.239034
v 0.237363 -0.377730 0.235966
v -0.178883 0.015580 0.496664
v 0.178588 0.015580 0.496664
v -0.000109 0.345657 0.371549
v -0.256449 -0.351775 -0.258275
v -0.481344 -0.010074 -0.213380
v -0.211554 -0.010074 -0.479994
v -0.495236 0.015672 -0.180113
v -0.495236 0.015586 0.177359
v -0.370120 0.345750 0.001366
v -0.212016 -0.010143 0.482692
v -0.481518 -0.010143 0.210393
v -0.256939 -0.351976 0.255317
vn 0.2046 -0.2479 0.9469
vn 0.8380 0.5186 -0.1700
vn 0.0257 -0.9994 -0.0252
vn 0.7015 0.1194 -0.7026
vn -0.9536 -0.2722 -0.1287
vn 0.0742 0.5801 -0.8112
vn -0.6005 0.3305 0.7282
vn 0.3141 0.8708 -0.3782
vn -0.4957 0.3263 -0.8049
vn 0.7286 -0.4774 -0.4911
vn 0.0198 0.9998 -0.0000
vn 0.9945 -0.1051 0.0010
vn -0.4950 0.3251 0.8057
vn 0.7299 -0.4772 0.4894
vn -0.9438 -0.3306 -0.0001
vn 0.5182 -0.8553 -0.0002
vn -0.6077 0.3344 -0.7203
vn 0.3208 0.8685 0.3780
vn -0.9532 -0.2715 0.1329
vn 0.0813 0.5725 0.8159
vn 0.0236 -0.9995 0.0227
vn 0.7017 0.1168 0.7028
vn 0.2010 -0.2503 -0.9471
vn 0.8390 0.5174 0.1684
vn 0.9488 -0.2640 -0.1732
vn -0.1385 0.5156 -0.8455
vn -0.0072 -0.9999 -0.0073
vn -0.7038 0.0975 -0.7037
vn -0.1759 -0.2640 0.9484
vn -0.8486 0.5099 -0.1408
vn 0.6593 0.3470 0.6671
vn -0.3596 0.8593 -0.3637
vn 0.5524 0.2583 -0.7925
vn -0.6930 -0.5193 -0.5001
vn 0.9381 -0.3465 -0.0001
vn -0.5100 -0.8602 -0.0003
vn 0.5503 0.2574 0.7943
vn -0.6942 -0.5205 0.4972
vn -0.0102 0.9999 -0.0000
vn -0.9950 -0.1002 -0.0010
vn -0.0053 -1.0000 0.0051
vn -0.7040 0.0952 0.7038
vn 0.9480 -0.2641 0.1779
vn -0.1462 0.5068 0.8496
vn 0.6657 0.3503 -0.6589
vn -0.3662 0.8570 0.3626
vn -0.1721 -0.2659 -0.9485
vn -0.8488 0.5103 0.1384
vn -0.7862 0.2671 -0.5573
vn -0.5047 -0.5221 0.6875
vn -0.0002 -0.3477 -0.9376
vn -0.0000 -0.8625 0.5060
vn 0.7940 0.2606 -0.5493
vn 0.4984 -0.5234 0.6911
vn -0.0001 0.9998 0.0199
vn 0.0001 -0.1057 0.9944
vn -0.0002 -0.3573 0.9340
vn -0.0000 -0.8577 -0.5141
vn -0.7848 0.2612 0.5620
vn -0.5051 -0.5145 -0.6929
vn -0.0001 0.9999 -0.0100
vn 0.0001 -0.0977 -0.9952
vn 0.7926 0.2548 0.5539
vn 0.4991 -0.5157 -0.6963
vn -0.5681 -0.4484 0.6901
vn 0.3840 -0.7976 -0.4652
vn -0.8340 0.5484 -0.0611
vn 0.1611 -0.1057 -0.9813
vn 0.1707 0.5529 0.8156
vn 0.9471 -0.0784 -0.3112
vn -0.8951 0.4458 -0.0000
vn 0.6199 0.7847 0.0002
vn -0.4774 -0.6140 0.6286
vn 0.8867 0.0210 0.4619
vn -0.4802 -0.6073 -0.6329
vn 0.8845 0.0251 -0.4660
vn -0.5915 -0.5483 0.5912
vn -0.3868 0.8370 0.3871
vn 0.5941 -0.5422 0.5941
vn 0.3837 0.8398 0.3839
vn 0.5943 -0.5416 -0.5945
vn 0.3836 0.8402 -0.3833
vn -0.5917 -0.5476 -0.5917
vn -0.3866 0.8374 -0.3864
vn -0.0001 0.4637 0.8860
vn -0.0002 0.7905 -0.6125
vn 0.6645 -0.5515 0.5043
vn 0.5027 0.0565 -0.8626
vn -0.6575 -0.5523 0.5125
vn -0.5107 0.0496 -0.8584
vn -0.8329 0.5489 0.0705
vn 0.1680 -0.1105 0.9796
vn -0.5773 -0.4439 -0.6853
vn 0.3863 -0.8010 0.4574
vn 0.1656 0.5621 -0.8103
vn 0.9489 -0.0793 0.3054
vn 0.8388 0.5444 0.0008
vn 0.5425 -0.8401 0.0005
vn -0.0000 0.5436 0.8393
vn -0.0002 -0.8388 0.5445
vn -0.8371 0.5471 -0.0009
vn -0.5495 -0.8355 -0.0006
vn -0.0000 0.5456 -0.8380
vn -0.0002 -0.8374 -0.5466
vn -0.0001 0.4651 -0.8852
vn -0.0002 0.7883 0.6153
vn -0.6572 -0.5518 -0.5134
vn -0.5103 0.0505 0.8585
vn 0.6636 -0.5522 -0.5047
vn 0.5018 0.0565 0.8632
vn 0.8240 0.5572 -0.1027
vn -0.2556 -0.0424 -0.9659
vn 0.6220 -0.4657 0.6295
vn -0.4365 -0.7838 -0.4417
vn -0.1108 0.5521 0.8264
vn -0.9639 -0.0447 -0.2624
vn 0.8870 0.4618 0.0001
vn -0.6165 0.7874 0.0002
vn 0.5089 -0.5480 -0.6639
vn -0.8606 0.0573 -0.5061
vn 0.5054 -0.5558 0.6600
vn -0.8633 0.0523 0.5019
vn 0.6305 -0.4616 -0.6240
vn -0.4387 -0.7868 0.4342
vn 0.8230 0.5568 0.1122
vn -0.2626 -0.0470 0.9637
vn -0.1051 0.5613 -0.8209
vn -0.9654 -0.0450 0.2567
vt 0.663026 0.471355
vt 0.684282 0.326609
vt 0.680634 0.323872
vt 0.664965 0.460058
vt 0.646563 0.499597
vt 0.684090 0.320823
vt 0.823318 0.327833
vt 0.827158 0.325269
vt 0.824001 0.322185
vt 0.837362 0.473401
vt 0.835573 0.464295
vt 0.853668 0.498497
vt 0.473057 0.343310
vt 0.325027 0.318350
vt 0.322684 0.321664
vt 0.462530 0.343767
vt 0.500308 0.353800
vt 0.319823 0.318842
vt 0.324990 0.185443
vt 0.322648 0.182127
vt 0.319800 0.185296
vt 0.472869 0.159486
vt 0.462259 0.160141
vt 0.500308 0.146607
vt 0.972839 0.161302
vt 0.975357 0.335865
vt 0.966837 0.333550
vt 0.962318 0.162746
vt 0.999900 0.145760
vt 0.999136 0.352822
vt 0.829682 0.321496
vt 0.827868 0.182863
vt 0.825124 0.179221
vt 0.822065 0.182687
vt 0.528762 0.161277
vt 0.676846 0.181823
vt 0.679469 0.178235
vt 0.539439 0.162402
vt 0.500508 0.146190
vt 0.682922 0.181711
vt 0.677931 0.320285
vt 0.529195 0.339000
vt 0.540082 0.337690
vt 0.500508 0.353723
vt 0.177867 0.318991
vt 0.026390 0.339352
vt 0.036927 0.337947
vt 0.180466 0.322526
vt 0.183854 0.319559
vt 0.000100 0.353800
vt 0.026356 0.162589
vt 0.036816 0.164410
vt 0.000100 0.146607
vt 0.177927 0.184479
vt 0.180526 0.180966
vt 0.183918 0.184343
vt 0.821502 0.176539
vt 0.682997 0.175629
vt 0.660958 0.028119
vt 0.662271 0.038725
vt 0.646223 0.000196
vt 0.839156 0.028165
vt 0.838218 0.038680
vt 0.853675 0.000100
vt 0.319173 0.324454
vt 0.339571 0.474443
vt 0.338319 0.464003
vt 0.353800 0.500308
vt 0.162297 0.474637
vt 0.163935 0.464442
vt 0.146607 0.500308
vt 0.184009 0.325208
vt 0.162129 0.027021
vt 0.339413 0.027804
vt 0.338049 0.039363
vt 0.163669 0.037914
vt 0.146607 0.000100
vt 0.353800 0.000100
vt 0.319152 0.179386
vt 0.184057 0.178365
vt 0.348605 0.031399
vt 0.469162 0.150765
vt 0.327704 0.176886
vt 0.971882 0.345191
vt 0.846826 0.470187
vt 0.830526 0.328652
vt 0.812065 0.310330
vt 0.696684 0.309263
vt 0.701133 0.305038
vt 0.807689 0.305985
vt 0.695702 0.194472
vt 0.700176 0.198941
vt 0.810542 0.195274
vt 0.806331 0.199719
vt 0.652997 0.468352
vt 0.532404 0.348787
vt 0.676353 0.328104
vt 0.327698 0.326838
vt 0.469400 0.351643
vt 0.348730 0.470758
vt 0.196440 0.307963
vt 0.196481 0.196927
vt 0.200862 0.201316
vt 0.200843 0.303765
vt 0.308179 0.197615
vt 0.303917 0.201983
vt 0.308195 0.307467
vt 0.303917 0.303281
vt 0.849067 0.031461
vt 0.969649 0.151476
vt 0.829340 0.174940
vt 0.176430 0.176858
vt 0.030470 0.153350
vt 0.152945 0.031040
vt 0.531911 0.151436
vt 0.651511 0.031358
vt 0.675190 0.174000
vt 0.153093 0.470549
vt 0.030450 0.348191
vt 0.176406 0.326638
s 0
usemtl Material.003
f 33/1/1 34/2/1 3/3/1 1/4/1
f 34/2/2 33/1/2 2/5/2 4/6/2
f 34/2/3 35/7/3 5/8/3 3/3/3
f 35/7/4 34/2/4 4/6/4 6/9/4
f 35/7/5 36/10/5 7/11/5 5/8/5
f 36/10/6 35/7/6 6/9/6 8/12/6
f 36/10/7 33/1/7 1/4/7 7/11/7
f 33/1/8 36/10/8 8/12/8 2/5/8
f 37/13/9 38/14/9 11/15/9 9/16/9
f 38/14/10 37/13/10 10/17/10 12/18/10
f 38/14/11 39/19/11 13/20/11 11/15/11
f 39/19/12 38/14/12 12/18/12 14/21/12
f 39/19/13 40/22/13 7/23/13 13/20/13
f 40/22/14 39/19/14 14/21/14 8/24/14
f 40/22/15 37/13/15 9/16/15 7/23/15
f 37/13/16 40/22/16 8/24/16 10/17/16
f 41/25/17 42/26/17 9/27/17 15/28/17
f 42/26/18 41/25/18 16/29/18 10/30/18
f 42/26/19 43/31/19 5/8/19 9/27/19
f 43/31/20 42/26/20 10/30/20 6/9/20
f 43/31/21 44/32/21 17/33/21 5/8/21
f 44/32/22 43/31/22 6/9/22 18/34/22
f 44/32/23 41/25/23 15/28/23 17/33/23
f 41/25/24 44/32/24 18/34/24 16/29/24
f 45/35/25 46/36/25 21/37/25 19/38/25
f 46/36/26 45/35/26 20/39/26 22/40/26
f 46/36/27 47/41/27 3/3/27 21/37/27
f 47/41/28 46/36/28 22/40/28 4/6/28
f 47/41/29 48/42/29 23/43/29 3/3/29
f 48/42/30 47/41/30 4/6/30 24/44/30
f 48/42/31 45/35/31 19/38/31 23/43/31
f 45/35/32 48/42/32 24/44/32 20/39/32
f 49/45/33 50/46/33 27/47/33 25/48/33
f 50/46/34 49/45/34 26/49/34 28/50/34
f 50/46/35 51/51/35 19/52/35 27/47/35
f 51/51/36 50/46/36 28/50/36 20/53/36
f 51/51/37 52/54/37 29/55/37 19/52/37
f 52/54/38 51/51/38 20/53/38 30/56/38
f 52/54/39 49/45/39 25/48/39 29/55/39
f 49/45/40 52/54/40 30/56/40 26/49/40
f 53/57/41 54/58/41 21/37/41 17/33/41
f 54/58/42 53/57/42 18/34/42 22/40/42
f 54/58/43 55/59/43 27/60/43 21/37/43
f 55/59/44 54/58/44 22/40/44 28/61/44
f 55/59/45 56/62/45 31/63/45 27/60/45
f 56/62/46 55/59/46 28/61/46 32/64/46
f 56/62/47 53/57/47 17/33/47 31/63/47
f 53/57/48 56/62/48 32/64/48 18/34/48
f 57/65/49 58/66/49 15/67/49 11/15/49
f 58/66/50 57/65/50 12/18/50 16/68/50
f 58/66/51 59/69/51 31/70/51 15/67/51
f 59/69/52 58/66/52 16/68/52 32/71/52
f 59/69/53 60/72/53 25/48/53 31/70/53
f 60/72/54 59/69/54 32/71/54 26/49/54
f 60/72/55 57/65/55 11/15/55 25/48/55
f 57/65/56 60/72/56 26/49/56 12/18/56
f 61/73/57 62/74/57 1/75/57 23/76/57
f 62/74/58 61/73/58 24/77/58 2/78/58
f 62/74/59 63/79/59 13/20/59 1/75/59
f 63/79/60 62/74/60 2/78/60 14/21/60
f 63/79/61 64/80/61 29/55/61 13/20/61
f 64/80/62 63/79/62 14/21/62 30/56/62
f 64/80/63 61/73/63 23/76/63 29/55/63
f 61/73/64 64/80/64 30/56/64 24/77/64
f 65/81/65 66/82/65 7/23/65 1/75/65
f 66/82/66 65/81/66 2/78/66 8/24/66
f 66/82/67 67/83/67 13/20/67 7/23/67
f 67/83/68 66/82/68 8/24/68 14/21/68
f 67/83/69 65/81/69 1/75/69 13/20/69
f 65/81/70 67/83/70 14/21/70 2/78/70
f 68/84/71 69/85/71 7/11/71 9/27/71
f 69/85/72 68/84/72 10/30/72 8/12/72
f 69/85/73 70/86/73 5/8/73 7/11/73
f 70/86/74 69/85/74 8/12/74 6/9/74
f 70/86/75 68/84/75 9/27/75 5/8/75
f 68/84/76 70/86/76 6/9/76 10/30/76
f 71/87/77 72/88/77 3/89/77 5/90/77
f 72/88/78 71/87/78 6/9/78 4/6/78
f 72/88/79 73/91/79 21/92/79 3/89/79
f 73/91/80 72/88/80 4/6/80 22/40/80
f 73/91/81 74/93/81 17/94/81 21/92/81
f 74/93/82 73/91/82 22/40/82 18/34/82
f 74/93/83 71/87/83 5/90/83 17/94/83
f 71/87/84 74/93/84 18/34/84 6/9/84
f 75/95/85 76/96/85 23/43/85 1/4/85
f 76/96/86 75/95/86 2/5/86 24/44/86
f 76/96/87 77/97/87 3/3/87 23/43/87
f 77/97/88 76/96/88 24/44/88 4/6/88
f 77/97/89 75/95/89 1/4/89 3/3/89
f 75/95/90 77/97/90 4/6/90 2/5/90
f 78/98/91 79/99/91 9/16/91 11/15/91
f 79/99/92 78/98/92 12/18/92 10/17/92
f 79/99/93 80/100/93 15/67/93 9/16/93
f 80/100/94 79/99/94 10/17/94 16/68/94
f 80/100/95 78/98/95 11/15/95 15/67/95
f 78/98/96 80/100/96 16/68/96 12/18/96
f 81/101/97 82/102/97 29/103/97 25/104/97
f 82/102/98 81/101/98 26/49/98 30/56/98
f 82/102/99 83/105/99 13/106/99 29/103/99
f 83/105/100 82/102/100 30/56/100 14/21/100
f 83/105/101 84/107/101 11/108/101 13/106/101
f 84/107/102 83/105/102 14/21/102 12/18/102
f 84/107/103 81/101/103 25/104/103 11/108/103
f 81/101/104 84/107/104 12/18/104 26/49/104
f 85/109/105 86/110/105 15/28/105 31/63/105
f 86/110/106 85/109/106 32/64/106 16/29/106
f 86/110/107 87/111/107 17/33/107 15/28/107
f 87/111/108 86/110/108 16/29/108 18/34/108
f 87/111/109 85/109/109 31/63/109 17/33/109
f 85/109/110 87/111/110 18/34/110 32/64/110
f 88/112/111 89/113/111 19/52/111 29/55/111
f 89/113/112 88/112/112 30/56/112 20/53/112
f 89/113/113 90/114/113 23/76/113 19/52/113
f 90/114/114 89/113/114 20/53/114 24/77/114
f 90/114/115 88/112/115 29/55/115 23/76/115
f 88/112/116 90/114/116 24/77/116 30/56/116
f 91/115/117 92/116/117 27/60/117 19/38/117
f 92/116/118 91/115/118 20/39/118 28/61/118
f 92/116/119 93/117/119 21/37/119 27/60/119
f 93/117/120 92/116/120 28/61/120 22/40/120
f 93/117/121 91/115/121 19/38/121 21/37/121
f 91/115/122 93/117/122 22/40/122 20/39/122
f 94/118/123 95/119/123 27/47/123 31/70/123
f 95/119/124 94/118/124 32/71/124 28/50/124
f 95/119/125 96/120/125 25/48/125 27/47/125
f 96/120/126 95/119/126 28/50/126 26/49/126
f 96/120/127 94/118/127 31/70/127 25/48/127
f 94/118/128 96/120/128 26/49/128 32/71/128
